HIERARCHY
ROOT root
{
	OFFSET 0.000000 0.000000 0.000000
	CHANNELS 6 Xposition Yposition Zposition Zrotation Yrotation Xrotation
	JOINT lhip
	{
		OFFSET 0.058581 -0.082280 -0.017664
		CHANNELS 3 Zrotation Yrotation Xrotation
		JOINT lknee
		{
			OFFSET 0.043451 -0.386469 0.008037
			CHANNELS 3 Zrotation Yrotation Xrotation
			JOINT lankle
			{
				OFFSET -0.014790 -0.426874 -0.037428
				CHANNELS 3 Zrotation Yrotation Xrotation
				JOINT ltoe
				{
					OFFSET 0.041054 -0.060286 0.122042
					CHANNELS 3 Zrotation Yrotation Xrotation
					End Site
					{
						OFFSET 0.000000 0.000000 0.000000
					}
				}
			}
		}
	}
	JOINT rhip
	{
		OFFSET -0.060310 -0.090513 -0.013543
		CHANNELS 3 Zrotation Yrotation Xrotation
		JOINT rknee
		{
			OFFSET -0.043257 -0.383688 -0.004843
			CHANNELS 3 Zrotation Yrotation Xrotation
			JOINT rankle
			{
				OFFSET 0.019056 -0.420046 -0.034562
				CHANNELS 3 Zrotation Yrotation Xrotation
				JOINT rtoe
				{
					OFFSET -0.034840 -0.062106 0.130323
					CHANNELS 3 Zrotation Yrotation Xrotation
					End Site
					{
						OFFSET 0.000000 0.000000 0.000000
					}
				}
			}
		}
	}
	JOINT lowerback
	{
		OFFSET 0.004439 0.124404 -0.038385
		CHANNELS 3 Zrotation Yrotation Xrotation
		JOINT upperback
		{
			OFFSET 0.004488 0.137956 0.026820
			CHANNELS 3 Zrotation Yrotation Xrotation
			JOINT chest
			{
				OFFSET -0.002265 0.056032 0.002855
				CHANNELS 3 Zrotation Yrotation Xrotation
				JOINT lowerneck
				{
					OFFSET -0.013390 0.211636 -0.033468
					CHANNELS 3 Zrotation Yrotation Xrotation
					JOINT upperneck
					{
						OFFSET 0.010113 0.088937 0.050410
						CHANNELS 3 Zrotation Yrotation Xrotation
						End Site
						{
							OFFSET 0.000000 0.000000 0.000000
						}
					}
				}
				JOINT lclavicle
				{
					OFFSET 0.071702 0.114000 -0.018898
					CHANNELS 3 Zrotation Yrotation Xrotation
					JOINT lshoulder
					{
						OFFSET 0.122921 0.045205 -0.019046
						CHANNELS 3 Zrotation Yrotation Xrotation
						JOINT lelbow
						{
							OFFSET 0.255332 -0.015649 -0.022946
							CHANNELS 3 Zrotation Yrotation Xrotation
							JOINT lwrist
							{
								OFFSET 0.265709 0.012698 -0.007375
								CHANNELS 3 Zrotation Yrotation Xrotation
								End Site
								{
									OFFSET 0.000000 0.000000 0.000000
								}
							}
						}
					}
				}
				JOINT rclavicle
				{
					OFFSET -0.082954 0.112472 -0.023707
					CHANNELS 3 Zrotation Yrotation Xrotation
					JOINT rshoulder
					{
						OFFSET -0.113228 0.046853 -0.008472
						CHANNELS 3 Zrotation Yrotation Xrotation
						JOINT relbow
						{
							OFFSET -0.260127 -0.014369 -0.031269
							CHANNELS 3 Zrotation Yrotation Xrotation
							JOINT rwrist
							{
								OFFSET -0.269108 0.006794 -0.006027
								CHANNELS 3 Zrotation Yrotation Xrotation
								End Site
								{
									OFFSET 0.000000 0.000000 0.000000
								}
							}
						}
					}
				}
			}
		}
	}
}
MOTION
Frames: 10
Frame Time: 0.033333
-0.189682 1.284372 1.005592 175.923641 1.477023 85.515537 -0.277390 -5.329644 -20.975578 -5.076491 -4.188997 6.326863 5.306080 14.186138 -18.798921 0.000000 -0.000000 0.000000 -2.057605 -7.357125 3.182156 5.167148 -10.978461 53.311425 7.893849 -13.934303 9.498202 0.000000 -0.000000 0.000000 -3.477334 6.781809 5.582653 3.826533 -0.015718 -2.210196 -0.055996 1.610959 -0.271278 2.948959 -0.479440 9.141820 -3.533895 -4.023814 14.014023 -21.799775 17.317391 0.694640 -38.894460 7.723954 12.080678 -17.828467 -72.671646 32.292302 24.505046 -9.055520 -10.456210 27.455364 -5.631902 -3.039027 42.773603 6.311601 17.660174 -7.847539 67.098685 -1.616040 -14.304720 10.505761 -9.843474 
-0.183295 1.364499 0.986842 175.419236 1.249497 83.820071 -2.085379 -3.724794 -18.437442 -4.197572 -2.368376 13.325356 10.962608 11.362692 -8.936187 0.000000 -0.000000 0.000000 -4.128338 -6.947028 0.053785 -0.042603 -13.311152 63.775561 3.873714 -19.264458 1.193631 0.000000 -0.000000 0.000000 -5.010194 5.117151 7.878338 4.751349 0.682880 -4.551130 0.191132 1.266899 0.207725 3.875401 -1.302080 9.125726 -3.328998 -2.050579 15.596825 -22.187502 17.659865 1.447366 -35.970754 6.815974 12.116300 -21.201120 -72.714814 35.068227 24.146564 -9.997173 -8.513205 27.911146 -6.229250 -3.686386 41.835825 4.196897 19.249533 -6.750254 66.060197 -1.460619 -12.792088 10.579340 -8.910828 
-0.176167 1.442272 0.964419 175.032346 0.794566 80.203657 -3.217730 -1.007310 -16.197639 -5.926793 -3.469761 26.448836 11.731111 12.084421 -18.089101 0.000000 -0.000000 0.000000 -5.372590 -5.829005 -3.138429 -2.197963 -11.680900 71.510907 4.548764 -18.341926 -8.132248 0.000000 -0.000000 0.000000 -5.614709 3.686382 15.364408 4.371060 1.312780 -10.660664 0.476045 0.607806 2.783674 5.451356 -0.266202 3.935869 -3.594522 -1.321725 21.862935 -22.059937 15.863670 1.126979 -35.158816 5.569783 12.638493 -17.404862 -71.532850 33.102045 23.705340 -12.048028 -6.168294 27.279051 -5.635590 -6.381351 43.207531 0.336006 20.514428 -7.775087 62.349864 -1.655223 -10.274944 10.286246 -7.945945 
-0.170651 1.512235 0.949997 176.374941 -0.220957 80.156866 -3.869583 -4.692211 -14.843189 -8.076204 -1.380022 32.373216 10.126735 14.917923 -21.609733 0.000000 -0.000000 0.000000 -6.252564 -2.473432 -12.367884 -0.961984 -12.244554 76.252193 6.244187 -14.313599 -12.707600 0.000000 -0.000000 0.000000 -6.258097 2.046315 16.786986 3.922774 0.692694 -9.748197 -0.312379 -0.536912 1.777190 7.180683 2.518105 3.455333 -3.669358 -2.529450 20.159538 -21.935872 13.936784 0.725462 -35.382685 1.756017 12.347771 -10.790179 -69.687824 30.322979 17.173686 -14.164794 -0.715658 27.700845 -6.751987 -5.535325 45.364011 0.244659 19.135818 -9.310389 55.661081 -1.582029 -6.462879 9.982799 -6.583632 
-0.163685 1.574272 0.945432 176.614721 -0.486544 80.245297 -3.549477 -2.345803 -10.486162 -9.745121 -2.259391 32.829712 9.597436 14.803264 -24.105641 0.000000 -0.000000 0.000000 -5.573438 -0.634029 -22.381770 0.699080 -11.538513 76.329766 7.014511 -13.202207 -15.307800 0.000000 -0.000000 0.000000 -6.462904 -0.121428 18.096210 3.474945 1.133930 -9.013072 -0.533301 -1.280654 0.473835 7.366945 3.288743 4.966175 -3.131360 -1.969581 17.417652 -22.272971 11.745663 1.154843 -36.072224 -1.945772 11.324109 -2.716702 -70.671321 25.708361 14.389131 -15.710515 3.074325 27.202121 -6.964484 -3.392664 47.076619 -0.648407 17.316417 -8.852789 49.864481 -1.463970 -4.493807 9.568515 -7.003157 
-0.155705 1.636600 0.945807 176.644483 -0.188966 79.725777 -2.764391 2.654425 -4.328403 -10.602606 -6.592258 32.562376 8.226910 14.486480 -26.818218 0.000000 -0.000000 0.000000 -4.234643 -0.198924 -29.633738 0.630483 -10.851265 71.272622 7.953224 -13.235450 -17.224000 0.000000 -0.000000 0.000000 -6.079657 -2.574043 18.888667 2.731871 1.784368 -9.953246 -0.247141 -1.910611 1.502222 6.729499 3.510380 4.917605 -2.886011 -0.248699 17.961740 -22.408879 10.039554 0.492442 -37.329604 -5.306680 10.706661 3.716047 -72.532524 19.079743 15.993391 -14.878511 1.471592 26.169431 -6.761967 -3.143701 47.251056 -3.691140 16.610810 -5.716948 46.212684 0.646704 -2.844696 8.611887 -7.900946 
-0.147179 1.701128 0.951718 176.962496 0.308095 80.113042 -1.763153 5.271298 1.844307 -10.346424 -10.701422 30.547994 6.163867 14.663451 -27.196417 0.000000 -0.000000 0.000000 -3.426793 0.124712 -34.145403 0.180771 -11.854938 60.154509 8.228042 -14.072303 -17.084828 0.000000 -0.000000 0.000000 -5.255320 -4.888499 16.817406 2.208378 1.998641 -8.859023 0.119299 -2.441773 1.622680 5.585698 3.180361 6.638825 -2.350028 1.623040 17.814025 -23.620481 8.950189 0.048147 -38.211854 -8.551030 10.529425 12.718617 -74.083681 8.917357 17.835947 -13.899795 -0.492339 25.753068 -7.030241 -2.769198 44.828888 -6.657014 16.716548 -1.130212 43.352194 6.417823 -0.851857 8.529144 -7.734550 
-0.137931 1.767713 0.959838 177.668120 0.885819 80.412290 -0.607159 5.348080 8.472983 -9.300705 -12.821051 27.405915 3.630904 14.339985 -25.021156 0.000000 -0.000000 0.000000 -2.996775 -0.482442 -34.461833 -1.366283 -16.551204 43.343063 8.561404 -16.119161 -8.956209 0.000000 -0.000000 0.000000 -3.870805 -6.886440 14.271764 1.403336 1.751088 -7.085765 0.479701 -3.268184 1.203750 3.829950 2.057798 8.937511 -1.601224 3.910063 16.725033 -25.003002 8.636740 0.329497 -39.489191 -11.156313 9.782070 24.456530 -75.940138 -2.416030 17.899231 -14.238010 -1.000301 25.055262 -7.659876 -1.338556 43.200859 -8.841455 16.486884 1.370601 41.216689 10.541713 0.009000 9.096027 -4.718513 
-0.127368 1.832861 0.966740 178.447562 1.562458 80.926187 1.249364 4.760079 13.304544 -8.959955 -12.944997 26.246558 2.148324 13.509833 -21.166702 0.000000 -0.000000 0.000000 -1.821773 -1.016060 -31.923536 0.507980 -19.823336 22.621604 9.001089 -16.884378 11.217375 0.000000 -0.000000 0.000000 -2.469005 -8.169653 11.745177 0.597317 1.188550 -4.920092 0.959585 -4.052466 -0.294657 1.269119 1.050274 10.675497 -0.180306 7.093086 14.310651 -25.666518 8.015824 1.451835 -41.418208 -12.560884 9.100205 37.857584 -77.541931 -15.510583 18.544223 -14.089329 -1.337227 24.026950 -8.422255 0.757991 42.700207 -10.326790 15.320901 3.016830 39.101943 11.926517 -0.689443 8.948123 -4.021816 
-0.116866 1.897572 0.967456 179.085015 1.260889 82.017435 1.772759 3.375328 15.014670 -9.628326 -11.132147 29.030268 -0.786578 12.937138 -17.312938 0.000000 -0.000000 0.000000 -1.936948 -0.880247 -30.431130 3.656906 -20.042484 9.515147 11.453121 -16.579286 26.655549 0.000000 -0.000000 0.000000 -2.047110 -8.238779 8.705680 -0.277453 0.389299 -2.820061 1.559963 -4.425999 -2.031409 -2.470097 -2.148617 14.835604 1.987575 11.621480 10.178364 -26.212606 6.930503 3.061170 -43.063523 -13.110318 9.103451 54.368948 -78.743062 -33.221155 18.143402 -12.856051 -0.953560 22.518720 -8.625526 2.497375 42.806206 -12.481451 13.352235 5.535409 37.157331 10.242322 -2.499254 8.276107 -4.146907 
